<svg xmlns="http://www.w3.org/2000/svg" width="824" height="824" fill="none"><rect width="824" height="824" fill="#08110F" rx="184"/><rect width="824" height="824" fill="url(#a)" fill-opacity=".5" rx="184"/><path fill="url(#b)" d="M435.425 463.217c-5.984 13.44-24.392 18.298-41.116 10.853-16.724-7.446-25.43-24.377-19.446-37.817 5.983-13.44 24.391-18.299 41.115-10.853 16.724 7.446 25.431 24.377 19.447 37.817Z"/><path fill="url(#c)" d="M435.425 463.217c-5.984 13.44-24.392 18.298-41.116 10.853-16.724-7.446-25.43-24.377-19.446-37.817 5.983-13.44 24.391-18.299 41.115-10.853 16.724 7.446 25.431 24.377 19.447 37.817Z" style="mix-blend-mode:soft-light"/><path fill="url(#d)" d="M535.563 521.172c17.508 5.019 34.973-2.316 39.008-16.383 4.035-14.067-6.887-29.538-24.396-34.557-17.509-5.019-34.974 2.316-39.009 16.383-4.035 14.067 6.888 29.538 24.397 34.557Z"/><path fill="url(#e)" d="M535.563 521.172c17.508 5.019 34.973-2.316 39.008-16.383 4.035-14.067-6.887-29.538-24.396-34.557-17.509-5.019-34.974 2.316-39.009 16.383-4.035 14.067 6.888 29.538 24.397 34.557Z" style="mix-blend-mode:soft-light"/><path fill="url(#f)" d="M292.782 355.633c15.445 9.653 21.68 27.54 13.927 39.951-7.754 12.411-26.56 14.647-42.005 4.994-15.446-9.654-21.681-27.541-13.927-39.952 7.753-12.411 26.56-14.646 42.005-4.993Z"/><path fill="url(#g)" d="M292.782 355.633c15.445 9.653 21.68 27.54 13.927 39.951-7.754 12.411-26.56 14.647-42.005 4.994-15.446-9.654-21.681-27.541-13.927-39.952 7.753-12.411 26.56-14.646 42.005-4.993Z" style="mix-blend-mode:soft-light"/><path fill="url(#h)" fill-rule="evenodd" d="M502.355 231.325c79.018 35.181 129.74 111.938 131.764 197.705 46.514 36.609 92.739 87.853 71.241 136.138-24.11 54.151-109.978 51.923-207.579 24.521-47.014 26.029-105.337 30.479-158.092 6.991-52.755-23.488-88.46-69.772-100.589-122.163-85.672-54.196-144.785-116.518-120.675-170.67 21.498-48.285 90.51-48.221 148.84-38.15 65.091-55.887 156.073-69.553 235.09-34.372ZM159.38 322.082c-11.713 26.307 51.198 100.97 223.465 177.669 172.266 76.698 269.848 73.49 281.56 47.183 9.694-21.774-30.192-63.626-75.868-96.056-35.528-25.394-84.193-53.384-147.673-81.647-17.278-7.693-24.025-28.223-16.76-44.54 7.265-16.317 23.225-27.228 56.826-28.781 15.817-.048 17.893-4.434 18.616-8.194.896-5.801-7.145-11.714-15.438-15.406-65.938-29.357-146.655-17.045-202.605 41.868-54.663-12.245-112.429-13.869-122.123 7.904Z" clip-rule="evenodd"/><path fill="url(#i)" fill-rule="evenodd" d="M502.355 231.325c79.018 35.181 129.74 111.938 131.764 197.705 46.514 36.609 92.739 87.853 71.241 136.138-24.11 54.151-109.978 51.923-207.579 24.521-47.014 26.029-105.337 30.479-158.092 6.991-52.755-23.488-88.46-69.772-100.589-122.163-85.672-54.196-144.785-116.518-120.675-170.67 21.498-48.285 90.51-48.221 148.84-38.15 65.091-55.887 156.073-69.553 235.09-34.372ZM159.38 322.082c-11.713 26.307 51.198 100.97 223.465 177.669 172.266 76.698 269.848 73.49 281.56 47.183 9.694-21.774-30.192-63.626-75.868-96.056-35.528-25.394-84.193-53.384-147.673-81.647-17.278-7.693-24.025-28.223-16.76-44.54 7.265-16.317 23.225-27.228 56.826-28.781 15.817-.048 17.893-4.434 18.616-8.194.896-5.801-7.145-11.714-15.438-15.406-65.938-29.357-146.655-17.045-202.605 41.868-54.663-12.245-112.429-13.869-122.123 7.904Z" clip-rule="evenodd" style="mix-blend-mode:soft-light"/><defs fill="#000"><radialGradient id="a" cx="0" cy="0" r="1" fill="#000" gradientTransform="matrix(-634.47637 885.80252 -983.96849 -704.78999 814.524 12.36)" gradientUnits="userSpaceOnUse"><stop stop-color="#ff3e00" stop-opacity=".5"/><stop offset=".997" stop-color="#ff3e00" stop-opacity="0"/></radialGradient><radialGradient id="c" cx="0" cy="0" r="1" fill="#000" gradientTransform="matrix(-593.2334 216.10693 -131.82499 -361.87172 644.721 344.481)" gradientUnits="userSpaceOnUse"><stop stop-color="#fff"/><stop offset="1" stop-color="#fff" stop-opacity="0"/></radialGradient><radialGradient id="e" cx="0" cy="0" r="1" fill="#000" gradientTransform="matrix(-593.2334 216.10693 -131.82499 -361.87172 644.721 344.481)" gradientUnits="userSpaceOnUse"><stop stop-color="#fff"/><stop offset="1" stop-color="#fff" stop-opacity="0"/></radialGradient><radialGradient id="g" cx="0" cy="0" r="1" fill="#000" gradientTransform="matrix(-593.2334 216.10693 -131.82499 -361.87172 644.721 344.481)" gradientUnits="userSpaceOnUse"><stop stop-color="#fff"/><stop offset="1" stop-color="#fff" stop-opacity="0"/></radialGradient><radialGradient id="i" cx="0" cy="0" r="1" fill="#000" gradientTransform="matrix(-593.2334 216.10693 -131.82499 -361.87172 644.721 344.481)" gradientUnits="userSpaceOnUse"><stop stop-color="#fff"/><stop offset="1" stop-color="#fff" stop-opacity="0"/></radialGradient><linearGradient id="b" x1="411.893" x2="411.893" y1="212" y2="612" fill="#000" gradientUnits="userSpaceOnUse"><stop stop-color="#ff3e00"/><stop offset="1" stop-color="#ff3e00"/></linearGradient><linearGradient id="d" x1="411.893" x2="411.893" y1="212" y2="612" fill="#000" gradientUnits="userSpaceOnUse"><stop stop-color="#ff3e00"/><stop offset="1" stop-color="#ff3e00"/></linearGradient><linearGradient id="f" x1="411.893" x2="411.893" y1="212" y2="612" fill="#000" gradientUnits="userSpaceOnUse"><stop stop-color="#ff3e00"/><stop offset="1" stop-color="#ff3e00"/></linearGradient><linearGradient id="h" x1="411.893" x2="411.893" y1="212" y2="612" fill="#000" gradientUnits="userSpaceOnUse"><stop stop-color="#ff3e00"/><stop offset="1" stop-color="#ff3e00"/></linearGradient></defs></svg>